<mxfile host="app.diagrams.net" modified="2024-03-29T15:15:41.061Z" agent="Mozilla/5.0 (Windows NT 10.0; Win64; x64) AppleWebKit/537.36 (KHTML, like Gecko) Chrome/121.0.0.0 Safari/537.36 OPR/107.0.0.0 (Edition Yx GX 03)" version="24.2.1" etag="HRbpWKVMtiaAcrPsv0WH" type="github">
  <diagram name="Страница — 1" id="z1LlcRbMbIW29fQ6IJgZ">
    <mxGraphModel>
      <root>
        <mxCell id="0" />
        <mxCell id="1" parent="0" />
      </root>
    </mxGraphModel>
  </diagram>
</mxfile>
